<svg width="51" height="50" viewBox="0 0 51 50" fill="none" xmlns="http://www.w3.org/2000/svg">
<rect x="1" y="0.5" width="49" height="49" rx="24.5" fill="#F6FFFC"/>
<rect x="1" y="0.5" width="49" height="49" rx="24.5" stroke="#E7F5F1"/>
<path d="M15.1781 35.8839C15.2076 35.8342 15.2379 35.7848 15.2688 35.7356C17.5263 32.1469 18.8332 27.9029 18.8332 23.3333C18.8332 19.6514 21.8179 16.6667 25.4998 16.6667C29.1817 16.6667 32.1665 19.6514 32.1665 23.3333C32.1665 25.0284 32.0511 26.6976 31.8277 28.3333M28.2987 39.7394C29.3182 37.7044 30.154 35.5615 30.7845 33.3333M37.1828 35.2199C38.2578 31.4428 38.8333 27.4553 38.8333 23.3333C38.8333 15.9695 32.8638 10 25.5 10C23.0714 10 20.7945 10.6493 18.8333 11.7838M10.5 30.6069C11.5678 28.4089 12.1667 25.9411 12.1667 23.3333C12.1667 20.9048 12.816 18.6278 13.9504 16.6667M25.4998 23.3333C25.4998 29.1953 23.8185 34.6647 20.9118 39.2854" stroke="#90D0BF" stroke-width="3" stroke-linecap="round" stroke-linejoin="round"/>
</svg>
