<svg width="32" height="368" viewBox="0 0 32 368" fill="none" xmlns="http://www.w3.org/2000/svg">
<g clip-path="url(#clip0_1297_2262)">
<rect x="4.00003" y="16" width="24" height="24" rx="12" fill="#E7F5F1"/>
<rect x="4.75003" y="16.75" width="22.5" height="22.5" rx="11.25" stroke="#0E9874" stroke-width="1.5"/>
<path fill-rule="evenodd" clip-rule="evenodd" d="M21.0964 23.39L13.9364 30.3L12.0364 28.27C11.6864 27.94 11.1364 27.92 10.7364 28.2C10.3464 28.49 10.2364 29 10.4764 29.41L12.7264 33.07C12.9464 33.41 13.3264 33.62 13.7564 33.62C14.1664 33.62 14.5564 33.41 14.7764 33.07C15.1364 32.6 22.0064 24.41 22.0064 24.41C22.9064 23.49 21.8164 22.68 21.0964 23.38V23.39Z" fill="#0D8A6A"/>
</g>
<rect x="17" y="40" width="80" height="2" transform="rotate(90 17 40)" fill="#0E9874"/>
<g filter="url(#filter0_d_1297_2262)">
<g clip-path="url(#clip1_1297_2262)">
<rect x="4.00003" y="120" width="24" height="24" rx="12" fill="#E7F5F1"/>
<rect x="4.75003" y="120.75" width="22.5" height="22.5" rx="11.25" fill="#E7F5F1"/>
<rect x="4.75003" y="120.75" width="22.5" height="22.5" rx="11.25" stroke="#0E9874" stroke-width="1.5"/>
<circle cx="16" cy="132" r="4" fill="#0E9874"/>
</g>
</g>
<rect x="17" y="144" width="80" height="2" transform="rotate(90 17 144)" fill="#EAECF0"/>
<g clip-path="url(#clip2_1297_2262)">
<rect x="4.00003" y="224" width="24" height="24" rx="12" fill="white"/>
<rect x="4.75003" y="224.75" width="22.5" height="22.5" rx="11.25" stroke="#EAECF0" stroke-width="1.5"/>
<circle cx="16" cy="236" r="4" fill="#EAECF0"/>
</g>
<rect x="17" y="248" width="80" height="2" transform="rotate(90 17 248)" fill="#EAECF0"/>
<g clip-path="url(#clip3_1297_2262)">
<rect x="4.00003" y="328" width="24" height="24" rx="12" fill="white"/>
<rect x="4.75003" y="328.75" width="22.5" height="22.5" rx="11.25" stroke="#EAECF0" stroke-width="1.5"/>
<circle cx="16" cy="340" r="4" fill="#EAECF0"/>
</g>
<defs>
<filter id="filter0_d_1297_2262" x="3.05176e-05" y="116" width="32" height="32" filterUnits="userSpaceOnUse" color-interpolation-filters="sRGB">
<feFlood flood-opacity="0" result="BackgroundImageFix"/>
<feColorMatrix in="SourceAlpha" type="matrix" values="0 0 0 0 0 0 0 0 0 0 0 0 0 0 0 0 0 0 127 0" result="hardAlpha"/>
<feMorphology radius="4" operator="dilate" in="SourceAlpha" result="effect1_dropShadow_1297_2262"/>
<feOffset/>
<feColorMatrix type="matrix" values="0 0 0 0 0.705882 0 0 0 0 0.87451 0 0 0 0 0.831373 0 0 0 1 0"/>
<feBlend mode="normal" in2="BackgroundImageFix" result="effect1_dropShadow_1297_2262"/>
<feBlend mode="normal" in="SourceGraphic" in2="effect1_dropShadow_1297_2262" result="shape"/>
</filter>
<clipPath id="clip0_1297_2262">
<rect x="4.00003" y="16" width="24" height="24" rx="12" fill="white"/>
</clipPath>
<clipPath id="clip1_1297_2262">
<rect x="4.00003" y="120" width="24" height="24" rx="12" fill="white"/>
</clipPath>
<clipPath id="clip2_1297_2262">
<rect x="4.00003" y="224" width="24" height="24" rx="12" fill="white"/>
</clipPath>
<clipPath id="clip3_1297_2262">
<rect x="4.00003" y="328" width="24" height="24" rx="12" fill="white"/>
</clipPath>
</defs>
</svg>
