<svg width="32" height="368" viewBox="0 0 32 368" fill="none" xmlns="http://www.w3.org/2000/svg">
<g filter="url(#filter0_d_1_16111)">
<g clip-path="url(#clip0_1_16111)">
<rect x="4" y="16" width="24" height="24" rx="12" fill="#E7F5F1"/>
<rect x="4.75" y="16.75" width="22.5" height="22.5" rx="11.25" fill="#E7F5F1"/>
<rect x="4.75" y="16.75" width="22.5" height="22.5" rx="11.25" stroke="#0D8A6A" stroke-width="1.5"/>
<circle cx="16" cy="28" r="4" fill="#0D8A6A"/>
</g>
</g>
<rect x="17" y="40" width="80" height="2" transform="rotate(90 17 40)" fill="#EAECF0"/>
<g clip-path="url(#clip1_1_16111)">
<rect x="4" y="120" width="24" height="24" rx="12" fill="white"/>
<rect x="4.75" y="120.75" width="22.5" height="22.5" rx="11.25" stroke="#EAECF0" stroke-width="1.5"/>
<circle cx="16" cy="132" r="4" fill="#EAECF0"/>
</g>
<rect x="17" y="144" width="80" height="2" transform="rotate(90 17 144)" fill="#EAECF0"/>
<g clip-path="url(#clip2_1_16111)">
<rect x="4" y="224" width="24" height="24" rx="12" fill="white"/>
<rect x="4.75" y="224.75" width="22.5" height="22.5" rx="11.25" stroke="#EAECF0" stroke-width="1.5"/>
<circle cx="16" cy="236" r="4" fill="#EAECF0"/>
</g>
<rect x="17" y="248" width="80" height="2" transform="rotate(90 17 248)" fill="#EAECF0"/>
<g clip-path="url(#clip3_1_16111)">
<rect x="4" y="328" width="24" height="24" rx="12" fill="white"/>
<rect x="4.75" y="328.75" width="22.5" height="22.5" rx="11.25" stroke="#EAECF0" stroke-width="1.5"/>
<circle cx="16" cy="340" r="4" fill="#EAECF0"/>
</g>
<defs>
<filter id="filter0_d_1_16111" x="0" y="12" width="32" height="32" filterUnits="userSpaceOnUse" color-interpolation-filters="sRGB">
<feFlood flood-opacity="0" result="BackgroundImageFix"/>
<feColorMatrix in="SourceAlpha" type="matrix" values="0 0 0 0 0 0 0 0 0 0 0 0 0 0 0 0 0 0 127 0" result="hardAlpha"/>
<feMorphology radius="4" operator="dilate" in="SourceAlpha" result="effect1_dropShadow_1_16111"/>
<feOffset/>
<feColorMatrix type="matrix" values="0 0 0 0 0.705882 0 0 0 0 0.87451 0 0 0 0 0.831373 0 0 0 1 0"/>
<feBlend mode="normal" in2="BackgroundImageFix" result="effect1_dropShadow_1_16111"/>
<feBlend mode="normal" in="SourceGraphic" in2="effect1_dropShadow_1_16111" result="shape"/>
</filter>
<clipPath id="clip0_1_16111">
<rect x="4" y="16" width="24" height="24" rx="12" fill="white"/>
</clipPath>
<clipPath id="clip1_1_16111">
<rect x="4" y="120" width="24" height="24" rx="12" fill="white"/>
</clipPath>
<clipPath id="clip2_1_16111">
<rect x="4" y="224" width="24" height="24" rx="12" fill="white"/>
</clipPath>
<clipPath id="clip3_1_16111">
<rect x="4" y="328" width="24" height="24" rx="12" fill="white"/>
</clipPath>
</defs>
</svg>
